<svg xmlns="http://www.w3.org/2000/svg" version="1.1" xmlns:xlink="http://www.w3.org/1999/xlink" xmlns:svgjs="http://svgjs.dev/svgjs" width="2000" height="1500" viewBox="0 0 2000 1500"><rect width="2000" height="1500" fill="#e672b0"></rect><g transform="matrix(0.4444444444444444,0,0,0.4444444444444444,555.5555555555557,250)"><svg viewBox="0 0 320 360" data-background-color="#e672b0" preserveAspectRatio="xMidYMid meet" height="2250" width="2000" xmlns="http://www.w3.org/2000/svg" xmlns:xlink="http://www.w3.org/1999/xlink"><g id="tight-bounds" transform="matrix(1,0,0,1,0,0)"><svg viewBox="0 0 320 360" height="360" width="320"><g><svg></svg></g><g><svg viewBox="0 0 320 360" height="360" width="320"><g><path d="M165.217 303.356c-1.404-1.755-2.809-0.702-2.808-1.755-8.426 2.106-24.223-3.511-30.894-2.809 1.404-2.106-2.106-1.755-2.106-3.159-1.404 2.106-2.809 0-4.915 0.702-2.106-5.266-10.532-1.404-11.585-8.075-4.915 0-6.67-2.809-11.586-5.617 0.351-0.351 0.702-0.351 1.054-0.702-2.457-0.351-2.457-1.755-4.564-1.755l0.702-1.405c-3.862-0.702-5.266-6.67-10.883-8.776-1.755-0.351-5.617-6.319-7.723-7.724-1.053-0.702-2.809-0.702-0.352-1.053-0.351-0.351-0.351-1.053 0-1.404-2.457-0.702-2.809-2.809-5.968-3.862-0.351-1.053 0.702-1.755 0-2.457-0.702-0.351-1.755 0.351-2.457 0-0.351 6.319 6.67 7.021 8.777 12.287-0.702-0.702-1.755-2.809-2.458-1.404-0.351 1.053 2.809 4.915 2.809 2.808-1.053 0.702-1.404-1.053-0.703-1.404 1.053 1.755 3.16 1.404 3.16 2.809-1.053 1.053-2.457-1.053-2.106 0.702 3.16 1.755 2.809 3.511 4.563 5.968-1.404-1.755-1.755 1.404-3.159 0-0.351-5.266-6.319-4.213-6.319-9.479-0.702-1.755-1.404-0.351-2.458-1.053 1.404-1.404-4.213-6.319-4.213-4.564-1.755-2.106-0.702-2.809-1.053-4.213-1.404-0.351-0.351 1.404-1.404 0.351 1.404-2.457-1.755-5.617-3.862-8.074l1.405-0.702c-2.457-1.404-2.809-4.213-4.564-7.373-2.106 3.16 4.213 10.181 3.159 11.585 0 0.351 2.457 3.16 3.16 4.564 2.809 4.915 4.915 10.883 8.777 13.692-0.702-0.351-0.351-2.457 0.702-1.404 0 1.053-0.702 2.106-0.702 3.159 2.106 2.106 3.862 3.862 5.968 5.968-4.564-2.809-9.128-5.617-12.288-9.83 1.755-0.351 3.511 2.809 4.915 2.458-3.511-2.809-2.457-3.862-3.861-7.372-1.404-1.053 0.351 1.404-1.054 1.755-4.564-4.213-8.075-6.67-10.181-10.532 0.351-0.351 0.702-0.702 0.703-1.404-0.351-0.351-0.351-0.351-0.703-0.702 2.106 2.106 2.809 3.862 5.266 4.212-1.053-1.053 0-1.404-1.404-2.457-0.702-1.404-1.755 0.702-2.457-0.351 0.702-1.053 0-2.457 0-3.511-0.702 0-1.404 0-1.756-1.053-0.702-0.351-1.053 0-1.404 0.702-0.351-0.351-0.351-1.053-0.702-1.404v-0.351c-0.351-0.351-0.702-1.053-1.053-1.405-2.809-7.372-4.564-17.202-8.426-23.521 1.053-4.213-0.702-12.638-1.755-14.745 1.053-1.755 0.351-9.83-0.351-11.234-1.755 0.702 0.351 4.564-1.404 5.617-1.755-7.723 1.053-16.5 0.351-23.521 0.702 0 1.404 0 1.404-0.351-1.053-1.053 0.702-3.16 0.351-5.617 1.404-3.16-3.16 4.564-3.16 7.723-0.351 0.702-1.755 0-1.404 1.756 0 2.457 0.702 7.372-0.702 10.883-0.702 0-0.702-0.702-1.404-0.351-0.351 1.755-0.702 3.862-1.053 5.617-0.351-0.702-0.702-1.755-0.703-2.107-1.755-8.777 0-18.958-0.702-26.33 1.404 0 1.404-2.106 2.458-2.808-0.351 2.809-1.053 6.319 0.702 7.021 1.404-13.692 4.213-28.787 10.532-43.532 4.564-10.883 11.234-21.766 19.308-30.543 0.702 1.053-0.351 3.511 0 4.564 7.021-7.372 11.585-16.149 19.309-21.064 0.351 1.755-3.16 3.16-3.16 4.564 3.16-3.16 4.213-2.106 7.724-3.159 1.053-1.404-1.404 0-1.756-1.405 2.106-1.404 3.511-3.16 4.915-4.212 0 0.351-0.351 0.351-0.351 0.702 3.862-1.053 4.213-3.16 7.022-3.862-0.351-0.351-1.053-0.702-2.107-0.351 0.702-0.351 1.755-1.053 2.809-1.404-0.351 0-0.351 0.351-0.702 0.351 2.106-1.053 0.351 0.351 0.351 1.053 0.351 0 0.702-0.351 0.702-0.351-2.106 1.404-3.511 2.106-4.213 4.564 1.053-0.702 1.404 0 2.809-1.054 1.404-0.702-0.351-1.755 0.702-2.457 1.053 0.702 2.457 0.351 3.51 0.351 0-0.702 0.351-1.404 1.054-1.755 0.351-0.702 0-1.053-0.352-1.053 0.351-0.351 0.702-0.351 1.405-0.703 0 0 0.351 0 0.351 0.351 5.968-2.809 12.638-5.266 18.957-7.372 3.862-0.351 8.777-0.351 10.883-2.808-0.702 0-1.404 0.351-1.755 0 0.351 0 1.053-0.351 1.404-0.351 0.702 0.702 1.755 0 0.702 1.404 0.351 0 0.351 0 0.703-0.351 0 0.351 0 0.351 0.351 0.702 0.351 0 0.702-0.351 1.053-1.053 0.351 0 0.702 0 1.053-0.351l-0.351 0.351c2.809-0.702 5.266-0.351 9.128-1.054 0-0.351 0-0.702 0-1.053 0.702 0 1.053-0.351 1.755-0.351v0.351c1.404-0.702 2.809 0.702 2.808 0 0.351 0 0.351 0 0.703 0 0 0.702-0.351 1.053-0.351 1.405 1.755 0 2.809 0 3.51-1.054-0.351-0.351-0.702-0.351-1.053-0.351 0.702 0 1.404-0.351 2.106-0.702 1.053 0.351 1.404 0.702 1.405 2.107 1.755-3.16 7.372 0.702 9.829 0 1.053 0 0.702-1.404 1.405-2.107 0.351 0 0.702 0 1.053 0 1.755 1.404 4.213 2.809 7.372 3.16-2.809-0.702 0.351-1.053 0.702-1.405-0.702 0-0.702-0.351-0.702-0.702 1.053 0 2.106 0.351 3.16 0.351 0 0.702 0.351 1.053 1.053 1.054 0.702 0 0.702-0.351 0.702-1.054 1.053 0 1.755 0 2.809 0.351-0.351 1.404 1.755 1.755 2.457 2.809-2.809-0.702-5.968-1.755-7.021 0 11.234 2.457 23.521 5.968 35.457 11.936 0 0 0 0 0 0.351h0.352c2.106 1.053 4.213 2.106 6.319 3.16 1.404 0.702 2.457 1.404 3.861 2.457 0 0.351 0 0.702 0.703 0.702h0.351c1.404 1.053 2.809 1.755 4.212 2.809 1.404 2.106 2.809 4.915 5.266 4.213 5.266 8.075 10.883 11.234 15.447 19.659 0.351-1.404 1.404 3.16 3.16 3.511-2.809-0.351 1.755 1.755-1.053 1.404 2.457 2.457 3.16 3.511 3.51 6.319-0.702-1.404-1.053-1.755-1.404-0.351-0.351 2.106 2.457-0.351 3.511 1.756-2.106 0-1.404 1.404-1.054 3.159 1.053-1.053 0.702-2.106 1.756-1.755 1.404 1.404-0.702 1.755-0.351 2.809 1.053-1.404 1.404-0.702 2.808 0-1.755 0.351 1.053 2.809-1.053 1.755 1.404 1.755 1.755 2.809 1.053 4.564-1.404-2.106-0.351-3.511-2.457-3.16 4.213 3.511 2.106 11.585 7.021 12.287-3.16 0.702 0 2.106-1.755 2.458 2.106 0.702 1.053 3.511 3.51 4.213-0.351 1.755-1.053 2.809-1.404 4.563 1.053 1.404 1.404 4.213 3.16 4.564-1.053 1.053-0.351 3.862-1.404 4.915 1.404-0.702 2.106-0.702 3.159 0.702-1.755 1.404-0.351 2.809-1.404 3.16 3.16 8.075-0.702 24.575 1.053 30.894-2.106-1.053-1.404 2.457-2.808 2.457 2.457 1.053 0.351 2.809 1.404 4.564-4.915 2.809 0 10.532-6.67 12.287 0.702 4.915-2.106 7.021-4.213 12.288-0.351-0.351-0.351-0.702-0.702-1.054-0.351 2.457-1.755 2.809-1.054 4.915l-1.404-0.702c0 3.862-5.968 5.968-7.372 11.936-0.351 1.755-5.617 6.319-7.022 8.777-0.702 1.053-0.351 2.809-1.053 0.351-0.351 0.351-1.053 0.351-1.404 0.351-0.351 2.457-2.457 3.16-3.16 6.319-0.702 0.351-1.755-0.702-2.457 0.351 0 0.702 0.702 1.755 0.351 2.458 6.319-0.351 6.319-7.723 11.234-10.181-0.351 1.053-2.457 2.106-1.053 2.808 1.053 0 4.213-3.511 2.457-3.159 1.053 0.702-1.053 1.404-1.404 1.053 1.755-1.404 1.053-3.16 2.458-3.511 1.053 0.702-1.053 2.457 1.053 2.107 1.404-3.16 3.16-3.511 5.266-5.266-1.404 1.404 1.755 1.755 0.351 3.159-5.266 1.053-3.511 7.021-8.777 7.724-1.404 1.053-0.351 1.404-0.702 2.457-1.755-1.053-5.617 4.915-4.213 4.564-1.755 1.755-2.809 1.053-4.212 1.404-0.351 1.404 1.404 0.351 0.702 1.405-2.457-1.053-5.617 2.457-7.724 4.915l-1.053-1.054c-1.053 2.809-3.862 3.16-7.021 5.266 3.511 1.755 9.479-5.617 11.234-4.564 0.351 0 3.16-2.809 4.213-3.861 4.564-3.511 10.181-6.319 12.287-10.181-0.351 0.702-2.457 0.702-1.404-0.351 1.053-0.351 2.106 0.351 3.159 0.351 5.617-7.723 12.638-14.043 17.905-23.17 0.351-0.351 0.702-1.053 1.053-1.756-0.702 2.106-1.755 3.862-2.458 5.968-5.617 3.862-7.723 15.096-14.393 16.851 0.351 3.862-3.16 4.915-4.915 9.479-1.053 1.404-1.755-1.053-2.809 0.702 1.053 4.915-8.777 4.564-8.425 9.128-0.702 0.351-1.755 0.702-2.458 1.404h-0.351c-0.351 0.351-0.351 0.351-0.702 0.702-1.755 1.053-3.16 2.106-4.564 3.16-4.915 2.809-11.585 4.915-16.851 7.723v-0.351c-1.404 0.702-3.16 0.351-2.809 1.756-1.053 0.702-2.106 1.404-3.159 2.106-0.351 0-0.351 0-0.702 0 0 0-0.351-0.351-0.702-0.351-0.702 0-0.702 0-1.054 0.351-4.564 0.351-10.532 2.457-12.287 3.862-1.755-1.053-9.83 0.702-11.234 1.404 0.702 1.053 2.809 0 4.564 0-1.053 0.351-2.106 0.702-2.458 1.404-0.351 0-0.351 0-0.702 0-0.351-1.053-1.404 0-1.755-0.351h0.351c-0.351-1.404-1.404-2.106-3.16-1.755 0 0.702 0 1.053-0.351 1.755 0.702 0 2.809-1.053 2.809 0-0.351 0-0.351 0.351 0 0.351-0.702 0.702-1.755 0.702-2.458 1.054-1.404 0-3.16 0-4.563 0-0.351-0.351-0.702-0.351-1.405-0.703-0.351 0.351-1.053 0.351-1.404 0.703-2.106 0-4.564 0.351-6.319 0.702 0-0.702 0-1.404-0.702-1.405-1.053 1.404-3.16-0.351-5.617 0.352-2.457-0.702 1.404 1.053 4.915 1.755-0.351 0.351-0.702 0.702-1.756 1.053M116.068 308.271c-4.915-4.564-15.096-6.67-16.851-10.181-2.809-0.351-7.021-5.617-10.532-6.319 1.755 0 0.351-1.053 0-1.755-0.702 0.702-1.404 1.053-2.106 1.053 0-2.809-2.809-4.564-5.266-6.319 1.755 1.053 3.16 1.755 5.266 2.106 0-0.702 0-1.404 0.702-1.404 2.457 2.457 5.266 4.915 8.425 7.372 4.213 3.862 25.979 13.692 29.841 15.447 0 0-0.702 1.404-0.351 1.404 1.755 1.053 3.16-1.053 3.511 1.404-5.617 0.702-7.723-3.16-12.639-2.808M277.909 226.824v0.351 0c-0.351 0 0-0.351 0-0.351M136.079 64.281c-0.351 0.351-0.702 0.351-0.702 0.351 0-0.351 0.351-0.351 0.702-0.351M129.409 66.036c0 0.351 0 0.351 0 0 0 0.351 0 0.351 0 0 0 0.351 0 0 0 0M106.238 73.408v0c0.351-0.351 0.351-0.351 0.703-0.351-0.351 0-0.702 0.351-0.703 0.351M162.409 61.823c-0.702 0-1.053 0-1.404-0.351 0.351 0 0.702 0 1.053 0h0.351c0 0 0 0 0 0.351M168.728 62.525c-0.351-0.351-1.404-0.702-2.457-0.702 0-0.351 0.351-0.702 0.351-0.702 0.351 0 0.702 0 1.053 0 0 0 0.351 0 0.351 0.351 0 0 0 0 0-0.351 0.351 0 0.351 0 0.702 0 0.351 0.702 0.702 1.053 0 1.404M180.313 63.579c-1.755 0.351-2.809-0.351-4.564-1.405 1.053 0 2.457 0.351 3.511 0.702 0.351 0 0.702 0.351 1.053 0.703M305.292 113.43c-0.702 0.351-1.053 0.351-1.755-1.053-5.617-11.936-15.798-29.138-30.543-43.532-14.394-14.745-33.702-26.681-51.255-33.001 1.053 0.351 2.457 1.053 1.755 1.756-15.447-5.968-30.192-9.479-44.234-10.883-37.915-5.968-77.585 2.106-108.128 21.766 0.351 0.702 0.351 1.053-0.702 1.755-11.234 7.021-27.032 19.309-39.671 35.458-12.638 16.149-22.468 36.511-26.681 54.766 0.351-1.053 0.702-2.809 1.405-2.107-9.128 36.16-6.67 67.053 5.968 93.735 0.702-0.702-1.755-4.213 0.351-3.862 1.404 3.862 3.16 8.075 5.266 11.936 2.457 5.617 5.266 12.989 9.128 14.745-9.83-19.309-16.5-41.426-17.203-61.085 1.404 2.809 1.053 8.777 3.16 11.234 0.702-13.34-2.457-31.245 2.106-43.883-1.053 6.67-1.755 15.798-1.053 24.925 0 6.67 3.16 25.277 5.266 27.032-0.351-0.351-0.351-2.106 0-2.106 1.053 2.106-1.404 3.16 0.351 3.511 0-0.702 0.351-0.702 0.702-0.703 3.511 7.723 8.075 19.66 11.585 25.628 4.213 7.723 9.83 14.745 16.149 21.064 0 0.351 0.351 0.351 0.352 0.702 0.702 1.755 3.16 3.862 3.861 5.266 0.351 0.702-0.351 1.755 0 2.458 5.266 9.83 12.989 19.66 22.468 27.383 5.968 7.021 15.447 14.394 27.032 20.713 11.234 5.968 24.223 10.883 36.16 13.691 8.426 2.106 18.606 2.457 24.926 3.862 8.426 1.755 23.17-0.702 30.542-2.107 44.234-6.67 88.117-36.862 110.235-80.393 22.819-43.883 22.117-97.596 2.457-138.671" fill="#ffe3e3" fill-rule="nonzero" stroke="none" stroke-width="1" stroke-linecap="butt" stroke-linejoin="miter" stroke-miterlimit="10" stroke-dasharray="" stroke-dashoffset="0" font-family="none" font-weight="none" font-size="none" text-anchor="none" style="mix-blend-mode: normal" data-fill-palette-color="tertiary"></path></g><g transform="matrix(1,0,0,1,80,157.08029197080293)"><svg viewBox="0 0 160 45.83941605839416" height="45.83941605839416" width="160"><g><svg viewBox="0 0 160 45.83941605839416" height="45.83941605839416" width="160"><g><svg viewBox="0 0 160 45.83941605839416" height="45.83941605839416" width="160"><g><svg viewBox="0 0 160 45.83941605839416" height="45.83941605839416" width="160"><g id="textblocktransform"><svg viewBox="0 0 160 45.83941605839416" height="45.83941605839416" width="160" id="textblock"><g><svg viewBox="0 0 160 45.83941605839416" height="45.83941605839416" width="160"><g transform="matrix(1,0,0,1,0,0)"><svg width="160" viewBox="1.5 -36.95 164.38 47.1" height="45.83941605839416" data-palette-color="#8929c5"><path d="M6.6 0.2L6.6 0.2Q4.75 0.2 3.23-1.3 1.7-2.8 1.7-6.05L1.7-6.05Q1.7-9.3 2.33-12.33 2.95-15.35 3.78-18.15 4.6-20.95 5.23-23.48 5.85-26 5.85-28.25L5.85-28.25Q5.1-28.55 4.45-28.55L4.45-28.55Q3.55-28.55 2.95-28 2.35-27.45 2-26.5L2-26.5 1.5-26.65Q1.55-30.15 2.53-32.23 3.5-34.3 5.05-35.2 6.6-36.1 8.25-36.1L8.25-36.1Q10.75-36.1 12.73-34.48 14.7-32.85 16.28-30.05 17.85-27.25 19.03-23.73 20.2-20.2 21.05-16.38 21.9-12.55 22.4-8.85L22.4-8.85Q22.7-10.85 23.03-13.75 23.35-16.65 23.6-19.85 23.85-23.05 23.85-25.95L23.85-25.95Q23.85-28.05 23.7-29.78 23.55-31.5 23.2-32.75L23.2-32.75 23.2-33.15Q24.5-34.6 25.83-35.35 27.15-36.1 28.3-36.1L28.3-36.1Q30-36.1 31.13-34.63 32.25-33.15 32.25-30.45L32.25-30.45Q32.25-28.45 31.7-25.58 31.15-22.7 30.4-19.45 29.65-16.2 29.08-13.08 28.5-9.95 28.45-7.45L28.45-7.45Q28.45-6.75 28.55-5.95 28.65-5.15 29.6-5.15L29.6-5.15Q29.65-4.95 29.65-4.85 29.65-4.75 29.65-4.65L29.65-4.65Q29.6-2.75 28.1-1.28 26.6 0.2 24.1 0.2L24.1 0.2Q22.15 0.2 20.8-0.8 19.45-1.8 18.55-3.48 17.65-5.15 17.03-7.28 16.4-9.4 15.85-11.65L15.85-11.65Q14.85-15.55 13.78-19.07 12.7-22.6 10.9-25.55L10.9-25.55Q11-23.55 10.75-21.18 10.5-18.8 10.23-16.38 9.95-13.95 9.95-11.7L9.95-11.7Q9.95-9.7 10.3-8.03 10.65-6.35 11.55-5.05L11.55-5.05Q11.55-2.6 10-1.2 8.45 0.2 6.6 0.2ZM45.65-26.75L45.65-26.75Q43.65-26.75 42.37-27.98 41.1-29.2 41.1-31.05L41.1-31.05Q41.1-33.05 42.6-34.5 44.1-35.95 46.25-35.95L46.25-35.95Q48.25-35.95 49.52-34.7 50.8-33.45 50.8-31.6L50.8-31.6Q50.8-29.6 49.3-28.18 47.8-26.75 45.65-26.75ZM42.15 0.2L42.15 0.2Q40.2 0.2 38.65-1.18 37.1-2.55 37.1-5.6L37.1-5.6Q37.1-7.35 37.57-8.88 38.05-10.4 38.67-11.85 39.3-13.3 39.77-14.68 40.25-16.05 40.25-17.4L40.25-17.4Q40.25-18.6 39.85-19.13 39.45-19.65 38.9-19.65L38.9-19.65Q38.05-19.65 37.25-18.55L37.25-18.55 36.9-18.75Q37.1-20.75 38.17-22.18 39.25-23.6 40.82-24.4 42.4-25.2 43.95-25.2L43.95-25.2Q45.85-25.2 47.25-23.98 48.65-22.75 48.65-20L48.65-20Q48.65-18.35 48.17-16.53 47.7-14.7 47.07-12.9 46.45-11.1 45.97-9.55 45.5-8 45.5-6.9L45.5-6.9Q45.5-5.95 45.87-5.55 46.25-5.15 46.7-5.15L46.7-5.15Q47.15-5.15 47.57-5.43 48-5.7 48.2-6.05L48.2-6.05 48.55-5.95Q48.55-4.1 47.57-2.73 46.6-1.35 45.15-0.58 43.7 0.2 42.15 0.2ZM61 0.45L61 0.45Q57.9 0.45 55.85-0.4 53.8-1.25 52.8-2.58 51.8-3.9 51.8-5.25L51.8-5.25Q51.8-7.15 53.5-8.63 55.2-10.1 58.1-10.1L58.1-10.1Q58.1-7.55 58.75-6.03 59.4-4.5 60.42-3.85 61.45-3.2 62.4-3.2L62.4-3.2Q63.55-3.2 64.32-3.88 65.09-4.55 65.09-5.55L65.09-5.55Q65.09-6.95 63.65-8 62.2-9.05 59.9-10.35L59.9-10.35Q58.75-11.05 57.4-11.98 56.05-12.9 55.1-14.23 54.15-15.55 54.15-17.4L54.15-17.4Q54.15-19.35 55.27-20.85 56.4-22.35 58.25-23.38 60.1-24.4 62.25-24.93 64.4-25.45 66.45-25.45L66.45-25.45Q70.3-25.45 72.25-23.9 74.2-22.35 74.2-20.6L74.2-20.6Q74.2-19.1 72.7-17.9 71.2-16.7 68.09-16.7L68.09-16.7Q68.15-19.25 67.05-20.43 65.95-21.6 64.7-21.6L64.7-21.6Q63.8-21.6 63.2-21.05 62.6-20.5 62.6-19.45L62.6-19.45Q62.6-18.25 63.37-17.38 64.15-16.5 65.32-15.83 66.5-15.15 67.75-14.55L67.75-14.55Q69.45-13.75 70.95-12.85 72.45-11.95 73.4-10.8 74.34-9.65 74.34-8L74.34-8Q74.34-5.75 72.52-3.83 70.7-1.9 67.65-0.73 64.59 0.45 61 0.45ZM82.24 0.2L82.24 0.2Q80.09 0.2 78.79-1.25 77.49-2.7 77.49-5.2L77.49-5.2Q77.49-6.55 77.84-8.72 78.19-10.9 78.72-13.53 79.24-16.15 79.74-18.88 80.24-21.6 80.59-24.15 80.94-26.7 80.94-28.65L80.94-28.65Q80.94-31.1 80.29-32.2L80.29-32.2 80.29-32.5Q81.39-33.75 82.69-34.35 83.99-34.95 85.24-34.95L85.24-34.95Q87.14-34.95 88.49-33.6 89.84-32.25 89.84-29.55L89.84-29.55Q89.84-28.1 89.44-26 89.04-23.9 88.49-21.6 87.94-19.3 87.39-17.3L87.39-17.3Q88.34-19.15 89.92-20.98 91.49-22.8 93.52-24 95.54-25.2 97.74-25.2L97.74-25.2Q100.24-25.2 101.12-23.65 101.99-22.1 101.99-19.8L101.99-19.8Q101.99-17.7 101.54-15.33 101.09-12.95 100.64-10.78 100.19-8.6 100.19-7.15L100.19-7.15Q100.19-5.05 101.44-5.05L101.44-5.05Q101.99-5.05 102.42-5.38 102.84-5.7 103.04-6.1L103.04-6.1 103.39-5.85Q103.39-3.9 102.44-2.55 101.49-1.2 100.02-0.5 98.54 0.2 96.99 0.2L96.99 0.2Q94.94 0.2 93.29-1.18 91.64-2.55 91.64-5.65L91.64-5.65Q91.64-7.4 92.12-9.45 92.59-11.5 93.04-13.43 93.49-15.35 93.49-16.65L93.49-16.65Q93.49-18.35 92.29-18.35L92.29-18.35Q91.19-18.35 89.89-17.25 88.59-16.15 87.62-14.5 86.64-12.85 86.34-11.25L86.34-11.25Q86.24-10.85 86.24-10.3L86.24-10.3Q86.24-9.05 86.62-7.9 86.99-6.75 86.99-5.2L86.99-5.2Q86.99-2.9 85.79-1.35 84.59 0.2 82.24 0.2ZM115.44-26.75L115.44-26.75Q113.44-26.75 112.17-27.98 110.89-29.2 110.89-31.05L110.89-31.05Q110.89-33.05 112.39-34.5 113.89-35.95 116.04-35.95L116.04-35.95Q118.04-35.95 119.32-34.7 120.59-33.45 120.59-31.6L120.59-31.6Q120.59-29.6 119.09-28.18 117.59-26.75 115.44-26.75ZM111.94 0.2L111.94 0.2Q109.99 0.2 108.44-1.18 106.89-2.55 106.89-5.6L106.89-5.6Q106.89-7.35 107.37-8.88 107.84-10.4 108.47-11.85 109.09-13.3 109.57-14.68 110.04-16.05 110.04-17.4L110.04-17.4Q110.04-18.6 109.64-19.13 109.24-19.65 108.69-19.65L108.69-19.65Q107.84-19.65 107.04-18.55L107.04-18.55 106.69-18.75Q106.89-20.75 107.97-22.18 109.04-23.6 110.62-24.4 112.19-25.2 113.74-25.2L113.74-25.2Q115.64-25.2 117.04-23.98 118.44-22.75 118.44-20L118.44-20Q118.44-18.35 117.97-16.53 117.49-14.7 116.87-12.9 116.24-11.1 115.77-9.55 115.29-8 115.29-6.9L115.29-6.9Q115.29-5.95 115.67-5.55 116.04-5.15 116.49-5.15L116.49-5.15Q116.94-5.15 117.37-5.43 117.79-5.7 117.99-6.05L117.99-6.05 118.34-5.95Q118.34-4.1 117.37-2.73 116.39-1.35 114.94-0.58 113.49 0.2 111.94 0.2ZM127.54 10.15L127.54 10.15Q126.09 10.15 124.79 9.63 123.49 9.1 122.99 8.05L122.99 8.05Q124.19 2.95 124.96-1 125.74-4.95 126.19-8.05 126.64-11.15 126.84-13.73 127.04-16.3 127.09-18.7L127.09-18.7Q125.39-18.6 123.84-18.38 122.29-18.15 121.14-17.75L121.14-17.75 121.04-18.1Q122.49-19.55 124.04-20.53 125.59-21.5 127.14-22.1L127.14-22.1 127.14-25.9Q127.14-29.75 128.69-32.18 130.24-34.6 132.66-35.77 135.09-36.95 137.69-36.95L137.69-36.95Q141.14-36.95 142.86-35.3 144.59-33.65 144.59-31.6L144.59-31.6Q144.59-30.1 143.66-28.7 142.74-27.3 140.89-26.38 139.04-25.45 136.24-25.45L136.24-25.45Q137.04-26.9 137.46-28.35 137.89-29.8 137.89-30.9L137.89-30.9Q137.89-31.75 137.64-32.27 137.39-32.8 136.94-32.8L136.94-32.8Q135.99-32.8 135.11-30.43 134.24-28.05 134.24-24.2L134.24-24.2 134.24-23.25Q135.69-23.3 137.01-23.2 138.34-23.1 139.49-23L139.49-23Q139.59-22.65 139.64-22.25 139.69-21.85 139.69-21.45L139.69-21.45Q139.69-20.7 139.49-19.95 139.29-19.2 138.94-18.4L138.94-18.4Q138.04-18.5 136.89-18.6 135.74-18.7 134.44-18.75L134.44-18.75 134.44-17.65Q134.44-14.9 134.21-11.3 133.99-7.7 133.39-2.75 132.79 2.2 131.54 9.05L131.54 9.05Q129.99 10.15 127.54 10.15ZM152.53 10L152.53 10Q150.03 10 148.51 8.47 146.99 6.95 146.99 4.35L146.99 4.35Q146.99 3 147.46 1.38 147.94-0.25 149.03-2.05L149.03-2.05Q146.59-2.2 145.01-3.7 143.44-5.2 143.44-8.25L143.44-8.25Q143.44-10.05 143.91-12.13 144.38-14.2 144.84-16.03 145.28-17.85 145.28-18.85L145.28-18.85Q145.28-19.6 144.99-19.93 144.69-20.25 144.28-20.25L144.28-20.25Q143.88-20.25 143.41-19.93 142.94-19.6 142.69-18.95L142.69-18.95 141.84-19.85Q142.13-21.4 143.13-22.6 144.13-23.8 145.59-24.5 147.03-25.2 148.59-25.2L148.59-25.2Q150.34-25.2 151.63-24.08 152.94-22.95 152.94-20L152.94-20Q152.94-18.15 152.49-16.03 152.03-13.9 151.59-12.03 151.13-10.15 151.13-9.05L151.13-9.05Q151.13-8.05 151.56-7.58 151.99-7.1 152.53-7.1L152.53-7.1Q153.24-7.1 154.13-7.88 155.03-8.65 155.84-10.45 156.63-12.25 156.88-15.3L156.88-15.3Q156.99-16.25 157.03-17.73 157.09-19.2 157.13-20.48 157.19-21.75 157.19-22.05L157.19-22.05Q157.19-23.85 158.51-24.58 159.84-25.3 161.44-25.3L161.44-25.3Q162.84-25.3 164.09-24.75 165.34-24.2 165.78-22.9L165.78-22.9 165.88-22.6Q165.44-22.2 165.11-19.9 164.78-17.6 164.34-13.75L164.34-13.75Q164.03-11.25 163.59-8.1 163.13-4.95 162.36-1.78 161.59 1.4 160.31 4.08 159.03 6.75 157.13 8.38 155.24 10 152.53 10ZM151.34 4.25L151.34 4.25Q152.88 4.25 154.11 1.43 155.34-1.4 156.03-6.6L156.03-6.6Q152.84-2.5 151.63-0.15 150.44 2.2 150.44 3.25L150.44 3.25Q150.44 4.25 151.34 4.25Z" opacity="1" transform="matrix(1,0,0,1,0,0)" fill="#8929c5" class="wordmark-text-0" data-fill-palette-color="primary" id="text-0"></path></svg></g></svg></g></svg></g></svg></g><g></g></svg></g></svg></g></svg></g></svg></g><defs></defs></svg><rect width="320" height="360" fill="none" stroke="none" visibility="hidden"></rect></g></svg></g></svg>